# xmcd CD database file
#
# Track frame offsets:
#	150
#	36272
#	90057
#	107495
#	123995
#	140535
#	159767
#	176917
#	201255
#	216400
#	235942
#	258797
#	281892
#
# Disc length: 4148 seconds
#
# Revision: 0
# Processed by: cddbd v1.5.1PL0 Copyright (c) Steve Scherf et al.
# Submitted via: CDex 1.51
#
DISCID=b310320d
DTITLE=Various Artist - Soft Rock Forever
DYEAR=2005
DGENRE=Mix
TTITLE0=Flash and the Pan - Early morning wake up Call
TTITLE1=Rock Medley
TTITLE2=Cher - If you could turn
TTITLE3=Kim Carnes - Bette Davis Eyes
TTITLE4=The Motels - Footsteps
TTITLE5=Natzareth - Piece of my Heart
TTITLE6=Kenny Loggins - Welcome to Hearlight
TTITLE7=Jim Steinmann - Rock and Roll Dreams
TTITLE8=Herbert Grönemeyer - Musik nur wenn sie Laut ist
TTITLE9=Head East - If you know me
TTITLE10=Wallflowers - One Headlight 
TTITLE11=Rob Grill - Rock Sugar
TTITLE12=Jean Goldmann - Americain
EXTD=YEAR: 2005
EXTT0=
EXTT1=
EXTT2=
EXTT3=
EXTT4=
EXTT5=
EXTT6=
EXTT7=
EXTT8=
EXTT9=
EXTT10=
EXTT11=
EXTT12=
PLAYORDER=
